<?xml version="1.0" standalone="no"?>
<!DOCTYPE svg PUBLIC "-//W3C//DTD SVG 20010904//EN"
 "http://www.w3.org/TR/2001/REC-SVG-20010904/DTD/svg10.dtd">
<svg version="1.0" xmlns="http://www.w3.org/2000/svg"
 width="768.000000pt" height="768.000000pt" viewBox="0 0 768.000000 768.000000"
 preserveAspectRatio="xMidYMid meet">
<metadata>
Created by potrace 1.14, written by Peter Selinger 2001-2017
</metadata>
<g transform="translate(0.000000,768.000000) scale(0.100000,-0.100000)"
fill="#000000" stroke="none">
<path d="M4848 6383 c-19 -21 -119 -191 -330 -558 -86 -148 -297 -515 -470
-815 -174 -300 -382 -662 -465 -805 -82 -143 -204 -354 -271 -470 -67 -115
-197 -340 -289 -499 -93 -159 -174 -291 -182 -294 -15 -5 -821 795 -821 816 0
7 18 34 40 60 21 26 121 146 220 267 100 121 203 245 229 275 26 30 84 100
129 155 44 55 124 152 177 215 53 63 132 160 177 215 45 55 110 135 145 177
35 43 63 81 63 87 0 11 -108 104 -355 305 -66 54 -142 117 -169 140 -69 58
-81 61 -112 28 -24 -26 -443 -525 -675 -807 -619 -750 -749 -904 -881 -1044
-94 -100 -107 -131 -65 -152 29 -16 1477 -1460 1477 -1474 0 -6 -37 -73 -81
-150 -181 -312 -210 -366 -204 -384 3 -9 25 -27 50 -39 24 -12 99 -54 167 -95
68 -41 170 -100 228 -132 58 -32 130 -73 162 -91 31 -19 62 -32 70 -29 15 6
77 113 604 1025 125 217 276 478 334 580 59 102 167 289 240 415 73 127 156
271 185 320 29 50 146 252 260 450 300 520 375 647 385 643 4 -2 118 -123 251
-269 134 -146 314 -340 399 -432 85 -92 155 -174 155 -183 0 -8 -274 -289
-608 -623 -480 -479 -608 -612 -605 -629 1 -12 121 -140 268 -288 237 -238
267 -265 288 -257 12 4 325 310 695 679 537 535 927 916 1095 1068 9 9 4 20
-26 51 -21 22 -118 128 -217 235 -98 107 -238 258 -310 335 -73 77 -156 167
-185 200 -53 60 -107 118 -251 270 -41 44 -158 170 -259 280 -101 110 -203
220 -227 244 -23 25 -43 51 -43 58 0 7 37 77 83 155 119 204 227 395 227 402
0 2 -33 22 -72 44 -40 21 -102 56 -138 77 -113 66 -448 255 -462 260 -8 3 -21
-2 -30 -12z"/>
</g>
</svg>
