<?xml version="1.0" standalone="no"?>
<!DOCTYPE svg PUBLIC "-//W3C//DTD SVG 20010904//EN"
 "http://www.w3.org/TR/2001/REC-SVG-20010904/DTD/svg10.dtd">
<svg version="1.0" xmlns="http://www.w3.org/2000/svg"
 width="690.000000pt" height="690.000000pt" viewBox="0 0 690.000000 690.000000"
 preserveAspectRatio="xMidYMid meet">
<metadata>
Created by potrace 1.14, written by Peter Selinger 2001-2017
</metadata>
<g transform="translate(0.000000,690.000000) scale(0.100000,-0.100000)"
fill="#000000" stroke="none">
<path d="M3237 6673 c-1 0 -42 -3 -92 -6 -49 -3 -90 -6 -90 -7 0 -4 -89 -16
-185 -26 -30 -3 -82 -12 -115 -19 -33 -7 -78 -16 -100 -19 -45 -7 -61 -10
-120 -26 -22 -6 -49 -13 -60 -15 -21 -5 -86 -27 -180 -62 -27 -10 -53 -22 -56
-26 -3 -5 -8 -8 -10 -6 -11 6 -61 -13 -194 -77 -55 -27 -102 -49 -105 -49 -7
-1 -88 -48 -210 -122 -58 -35 -114 -69 -125 -76 -21 -13 -96 -68 -105 -77 -3
-3 -42 -33 -87 -67 -45 -35 -95 -75 -110 -89 -15 -14 -55 -49 -87 -78 -79 -69
-129 -118 -202 -201 -34 -39 -78 -88 -98 -110 -19 -22 -36 -44 -36 -48 0 -5
-5 -5 -12 -1 -6 4 -8 3 -5 -3 3 -5 -19 -43 -50 -84 -124 -164 -272 -418 -348
-594 -9 -22 -21 -48 -26 -58 -49 -93 -164 -462 -185 -597 -3 -19 -9 -53 -14
-75 -26 -118 -42 -329 -43 -550 -1 -267 18 -498 57 -685 3 -14 11 -50 17 -80
6 -30 18 -80 27 -110 9 -30 17 -59 18 -65 6 -33 50 -165 85 -255 125 -320 315
-637 548 -914 130 -154 218 -238 451 -432 321 -266 828 -516 1220 -601 79 -17
170 -35 190 -37 8 -1 42 -6 75 -11 33 -4 69 -9 80 -10 11 -1 20 -3 20 -4 0 -5
256 -15 410 -15 255 0 355 8 600 50 182 31 188 32 270 55 38 11 80 22 92 25
23 4 144 48 253 91 177 70 503 251 659 366 334 247 573 492 778 797 117 176
245 411 303 560 12 30 27 69 35 85 35 81 115 340 131 425 7 41 14 73 20 100
12 54 17 90 29 190 6 60 8 78 21 220 10 113 10 391 0 475 -4 33 -9 76 -11 95
-2 19 -7 62 -10 95 -4 33 -9 71 -11 85 -2 14 -7 43 -10 65 -3 22 -8 47 -11 55
-3 8 -7 30 -10 49 -3 18 -16 72 -29 120 -14 47 -27 96 -30 108 -6 32 -61 187
-96 273 -39 99 -203 427 -219 440 -3 3 -12 16 -19 30 -45 86 -195 294 -313
435 -46 56 -213 221 -277 275 -23 19 -52 45 -66 57 -22 20 -152 126 -179 145
-5 4 -23 18 -40 31 -59 45 -222 147 -234 147 -5 0 -11 3 -13 8 -5 11 -51 36
-213 116 -234 114 -449 197 -570 220 -5 1 -16 5 -22 9 -7 5 -13 6 -13 4 0 -2
-21 0 -47 5 -27 5 -59 11 -73 14 -14 2 -36 7 -50 10 -14 4 -38 8 -55 10 -16 3
-43 6 -60 8 -16 3 -55 7 -85 11 -30 3 -71 8 -90 11 -84 12 -474 26 -483 17z"/>
</g>
</svg>
